PathFileType	4	(X/Y/Z)	63_2_17_p1_0-229_filt_butterworth.trc
DataRate	CameraRate	NumFrames	NumMarkers	Units	OrigDataRate	OrigDataStartFrame	OrigNumFrames
49.0	49.0	7	27	m	49.0	143	229
Frame#	Time	RHip			RKnee			RAnkle			RBigToe			RSmallToe			RHeel			LHip			LKnee			LAnkle			LBigToe			LSmallToe			LHeel			Neck			Head			Nose			RShoulder			RElbow			RWrist			RThumb			RIndex			RPinky			LShoulder			LElbow			LWrist			LThumb			LIndex			LPinky			
		X1	Y1	Z1	X2	Y2	Z2	X3	Y3	Z3	X4	Y4	Z4	X5	Y5	Z5	X6	Y6	Z6	X7	Y7	Z7	X8	Y8	Z8	X9	Y9	Z9	X10	Y10	Z10	X11	Y11	Z11	X12	Y12	Z12	X13	Y13	Z13	X14	Y14	Z14	X15	Y15	Z15	X16	Y16	Z16	X17	Y17	Z17	X18	Y18	Z18	X19	Y19	Z19	X20	Y20	Z20	X21	Y21	Z21	X22	Y22	Z22	X23	Y23	Z23	X24	Y24	Z24	X25	Y25	Z25	X26	Y26	Z26	X27	Y27	Z27	
143	2.9183673469387754	0.2931714339850908	0.6899951188430834	0.9019540791038995	0.2931875548027396	0.24242570206458022	0.7978490495886752	0.3155829218570813	-0.22961239247322812	0.787067166174252	0.2868474328251872	-0.166587821667437	0.568872739117599	0.3474398219327425	-0.18662553802242665	0.611296141381517	0.32150864403312673	-0.3443673941512272	0.8906216789386845	0.07550398159612208	0.6805576344188984	0.9165154628715224	0.09882994894553496	0.20434052087615973	0.8644314939301063	0.13353891637887222	-0.24698189283716554	0.84014721052968	0.13481629802362338	-0.18322763326836322	0.6196032395507921	0.08472153948933925	-0.2265848916965535	0.6936083237779476	0.1601724311542511	-0.32397716751793565	0.8835390711496336	0.203107728045288	1.2547093596542698	0.8656949006288208	0.22965232975402156	1.5095900890043794	0.798776378970586	0.19701725113750335	1.3790024268553414	0.7112672929558991	0.3514803674939952	1.183235859628555	0.8238672637326396	0.4191782860074942	0.9041119066092254	0.85786236502974	0.45374008481763195	0.7065228058963311	0.7108664461453933	0.4403183681718324	0.6485584686512254	0.5358218789178477	0.46043914500036975	0.6168756248299978	0.5351151043105459	0.5114714288208201	0.5461886312436125	0.678438510793614	0.04850353663441828	1.209717899572542	0.9587807299542748	-0.14090101836967667	1.1494484726432739	0.99559427769917	-0.3965052678064852	1.1271486908253778	1.0410546276386121	-0.4936319886362954	1.1210242853240127	0.9859700958080015	-0.5286694426878005	1.141559419235381	1.053895352631762	-0.5117931865122434	1.1486202061630633	1.102547257415948	
144	2.938775510204082	0.2928286777824708	0.6896519175134286	0.9007359799227763	0.29359630708260753	0.24255877293935862	0.7974722872993222	0.31439855959219964	-0.22971352576260332	0.7867446492916156	0.28546891740339014	-0.16031893531898583	0.5619877812588111	0.3467319870970025	-0.1823258712698319	0.6060513077654933	0.3204865500319187	-0.345354893783168	0.8908362520506661	0.07533715573340294	0.6810316562984505	0.9142007107070236	0.09850642670521104	0.20404088556441197	0.8634965853445495	0.13263308524307085	-0.2476910610181115	0.8412023932949169	0.13354766488617448	-0.18094463971243316	0.6166813203059275	0.08398836043113796	-0.22834204232958663	0.6956430409421469	0.15876795214429387	-0.3243877618451961	0.8846662571857287	0.20450396550814903	1.255049504300767	0.8654740529630509	0.2328887500488598	1.5115187729306814	0.7998357677808566	0.19907013567858667	1.3798781263004207	0.712085377898768	0.35569463804791235	1.1813227037902296	0.8279686787807617	0.4156536961032552	0.8966249762667398	0.8767852818521624	0.44267345853239715	0.7013221569841124	0.7233616725523171	0.4329034327697667	0.6334419723074449	0.5594407737275598	0.45046381218373127	0.608554150715433	0.553943262882217	0.501361792436211	0.5412735404470271	0.6951603858879077	0.04882897881678761	1.212196077964188	0.9531816671837403	-0.14050589618688408	1.145599656520302	0.9787570604241465	-0.39743170161852026	1.1247073598998611	1.0096111278857645	-0.4878232679109096	1.1190498338170503	0.9485902312004697	-0.5226207113242272	1.1382850645383613	1.015398312888029	-0.5107634067026812	1.1471286363046291	1.0611284473319604	
145	2.959183673469388	0.29249717430110633	0.6894848092860888	0.8990985684944703	0.29410173240937537	0.24278438166468044	0.7971278610264868	0.31344586480296555	-0.22989755095021874	0.7864190493221253	0.2844917950598522	-0.15872657120960398	0.5597548902320247	0.34640495068521737	-0.18143436160130194	0.6047553488767066	0.3195143285643759	-0.34558980827009694	0.8906516337877037	0.07530796213944975	0.6816289309663575	0.911387884361385	0.09831366358281735	0.20428246550743612	0.8619220223097401	0.1319311680426234	-0.24795057328080383	0.8416842186592098	0.13317963411786243	-0.18086823924450782	0.6158308257693732	0.08386043800398332	-0.22839398677130163	0.6955507074945462	0.15759808715238716	-0.3238589101637268	0.885018567283804	0.2053321772849167	1.2555358788697242	0.8654565098261988	0.23484661140655155	1.5134338043895705	0.8014273769198237	0.20100518440335044	1.3809365933698754	0.71368951330317	0.359448322157646	1.1789239132124476	0.8351227150508751	0.41188269536288574	0.8894955165585239	0.8963767272768444	0.43162190849029114	0.6983446261659305	0.7324029318153256	0.4265365131913274	0.6196232203685997	0.5843336444453715	0.4418786746406593	0.5993468734602675	0.5754295615620934	0.48902034840517994	0.5415177813859182	0.707658692575541	0.04889899100321944	1.2145577081338872	0.9476587320460241	-0.13990197681705846	1.1379009374855757	0.9669429065307127	-0.3946518134460669	1.1185847138528535	0.9802084241279716	-0.4802506251182228	1.1136279648245266	0.9167536943168368	-0.5134889558001475	1.1322686598167278	0.9770930524014368	-0.5061807055550994	1.141467982388363	1.016339144548482	
146	2.979591836734694	0.292236040014238	0.6895888055135545	0.8969400466022271	0.294678777643838	0.24279898079282583	0.7969106096195305	0.31265805681536424	-0.23038195544142565	0.7865543986528404	0.28467966871000955	-0.16270439238273485	0.5630252066607226	0.3468221094846744	-0.18404808855539656	0.6077840069051176	0.31855783595295706	-0.34521355154929234	0.8899150043023452	0.07544817700799739	0.6822372219132972	0.9083131117396668	0.09828080845600767	0.20509544168689492	0.8594654939930408	0.1313349064830162	-0.24791578472746328	0.841539259249855	0.1337599375113957	-0.1831656619054337	0.6167829379208071	0.0843106414408413	-0.2268937253939392	0.6933357940767325	0.15672624642904032	-0.32284113793520286	0.8845320704716946	0.20602716330826437	1.2562090838744522	0.866095570993753	0.2359519190116303	1.5152353915535859	0.803842376790943	0.20264689223467308	1.3821752340819415	0.7156702622100838	0.3625779917197455	1.1760086032645332	0.844739620045907	0.40817884012028244	0.8838837398660268	0.9142543240450274	0.42160452877050913	0.6977041856439642	0.7391484629227071	0.4195212016500691	0.610002086093482	0.6062909860027236	0.43406223973542934	0.5910027848349783	0.5974219609515895	0.4734766281449342	0.5449995851437281	0.7188184944115144	0.04887056488471628	1.2162423425815838	0.9424803910324083	-0.13894527432827708	1.1264592393881259	0.9593393383833144	-0.3868857073530063	1.1088218960979614	0.9522355427992168	-0.4699908013886934	1.104777748121884	0.8887155623969223	-0.5023306223748552	1.122269528266225	0.9401116860658194	-0.4981258351800868	1.1317517361451763	0.967976253574331	
147	3.0	0.2921003176542163	0.6899101880000746	0.8942957578000925	0.2953421301139468	0.2424290715896004	0.7968890594351994	0.3120172298494528	-0.23103462619692766	0.7870763642904542	0.28626080160429224	-0.17143992290824916	0.5712882126794334	0.3480358971076004	-0.1892931590885844	0.6141037124102132	0.3176264845604349	-0.3442757727175917	0.8885619461760028	0.07572641359767385	0.6826641041557205	0.9052891422415258	0.09836598116935368	0.20615826146228095	0.8560195405680264	0.13087451442888295	-0.24764940509617117	0.8407869568464673	0.13493785287699073	-0.1870040028834525	0.6186459912855191	0.08511246667783601	-0.22451739453120692	0.6897420649118251	0.1561933017657446	-0.32177729367788555	0.8832789782022661	0.20690696398096586	1.2570576091629324	0.8676136350436903	0.2364845775488879	1.5167719464120237	0.8066946889497075	0.20370629075902608	1.3834239407944453	0.7180887696656587	0.364878957687531	1.1726052759833476	0.8559989234963192	0.4046481637852153	0.8812696759297682	0.9276540501174833	0.412983404548533	0.6998176536489781	0.7441362098175331	0.41002897434005225	0.6056314987398134	0.622613504168757	0.4260456897101296	0.5858694406553254	0.6154839665858738	0.4557943443373439	0.5492643699253245	0.7299860305331638	0.04897294716018801	1.216538349497265	0.9388225759971265	-0.13689522540202873	1.1123819297901962	0.9536444876894731	-0.3747336296465016	1.096013664166859	0.9254705050209271	-0.4563834133302981	1.0919271426953054	0.8628788588997176	-0.4901404193451877	1.1075579483750324	0.9059715570783118	-0.4880979102938064	1.1169462342950178	0.9212994862902968	
148	3.020408163265306	0.2921360422846327	0.6903291253189439	0.8913833094401146	0.2960580815842818	0.24178671250915826	0.7968402127326275	0.31150063882338164	-0.23135505544034574	0.7872505700036395	0.2889039976630522	-0.18282088912532563	0.5827575960373887	0.34983273917729074	-0.19576630117985167	0.6218947443123061	0.31678244059420607	-0.34278111227194075	0.8866584020535879	0.07606816176472256	0.6827456014128382	0.9025776291805451	0.09842521047391371	0.20691107058219055	0.8518571443231406	0.13068433797120613	-0.24715867612701103	0.8394489835951083	0.13622232205169815	-0.19105195877721995	0.6204747306375761	0.08598746236013316	-0.2220657009641033	0.685856250385668	0.1559979665691961	-0.3209618380085662	0.8815248883329319	0.20796284630253725	1.2579465192598727	0.8697599711407448	0.2365373775922665	1.5178146661063294	0.8092059190181049	0.20409574129254865	1.3844207153145098	0.7211428350882295	0.3663650044999357	1.1688626083704212	0.8680587597858496	0.40097552579164386	0.8824795665943813	0.9355859167608946	0.4050961531137797	0.7039674259457267	0.7493096279298772	0.39725265635167617	0.6064404237285957	0.6324511221264384	0.41634891721634315	0.5848996121641925	0.6269779116086737	0.43843282430402236	0.5526893371135658	0.7402247642376943	0.04931102412281721	1.2149031233170224	0.9379513057764632	-0.13242042134701545	1.097332420314975	0.9464237593795648	-0.35955552531071655	1.0811062867724428	0.8997564174368593	-0.43930392206486235	1.0751357895121414	0.8375980022748861	-0.47703902266649056	1.0882547678007777	0.8757291852785305	-0.47655515648004776	1.0959750214965707	0.8825015133662901	
149	3.0408163265306123	0.29231619136054493	0.6907788663297582	0.8885073437515647	0.29670470127008336	0.2412067897278494	0.7963060328794843	0.31112137474171886	-0.2309877364624407	0.7865433464495455	0.2919671799164715	-0.19417847622706902	0.5947784952726707	0.3518799544027694	-0.20189928084732436	0.6293196997658239	0.3161275158502887	-0.340902550196339	0.8843674764791648	0.07642750998833381	0.6824597114132391	0.9002707632253201	0.09829950254643205	0.20699749081003282	0.8473668844737157	0.1308204956845529	-0.24657426877634814	0.8375289179685517	0.1373808937419056	-0.19449056719497015	0.6220120096256756	0.08675028300886571	-0.22013185069184718	0.6826638327157402	0.15614475132474007	-0.3207863982091179	0.8798199393470005	0.20894486856050862	1.2586256953385853	0.8721883048003504	0.2361426943056663	1.5181507924485527	0.810753618135476	0.20405291678684673	1.38501019854384	0.7245897779256336	0.3672858110094447	1.1652685547257233	0.8799148263048109	0.3967499080432844	0.8869116266227814	0.9396697972886079	0.39731417564794813	0.7090432091824515	0.7572246070583564	0.3818283806230902	0.6133942329044392	0.6355296300937359	0.40384291503725633	0.589058447977441	0.6322827599413043	0.42333877215605764	0.5561802533898152	0.7484864503757273	0.04971231027840726	1.2111014518409586	0.9396886814117418	-0.12395551101450625	1.081782613543596	0.9361604948845584	-0.3404649541025049	1.0647352357568127	0.87392763481807	-0.4175439254113361	1.0559346617668988	0.8102963959024911	-0.46002259892372804	1.066134712879153	0.8463695365228778	-0.4596783655166392	1.0697668072608468	0.8498911112908889	
